<svg id="Layer_1" data-name="Layer 1" xmlns="http://www.w3.org/2000/svg" viewBox="0 0 71.77 41.87"><defs><style>.cls-1{fill:#383f41;}</style></defs><title>BlendingEditor-3-selectedparts</title><path class="cls-1" d="M67.32,19.25l1.13,1.68L67.32,22.6c-7,10.45-16.69,17.14-27.22,18.84a32.75,32.75,0,0,1-5.3.43,35.1,35.1,0,0,1-19-5.7l6.34-3.3a28.27,28.27,0,0,0,17,2.65c8.31-1.34,16.07-6.5,22-14.59a43.53,43.53,0,0,0-5-5.72l5.57-2.9A50.72,50.72,0,0,1,67.32,19.25Z"/><path class="cls-1" d="M54.27,6.05L48,9.31a28.43,28.43,0,0,0-17.57-3C22.1,7.66,14.36,12.82,8.48,20.93a42.16,42.16,0,0,0,5.38,6.13L8.26,30a50.11,50.11,0,0,1-5.93-7.39l-1.1-1.65,1.1-1.66C9.27,8.79,18.92,2.09,29.49.41A34.84,34.84,0,0,1,54.27,6.05Z"/><path class="cls-1" d="M47.75,19.58A13.37,13.37,0,0,1,47.83,21a13,13,0,0,1-21.59,9.76l6.16-3.2a6.84,6.84,0,0,0,2.43.44,7,7,0,0,0,6.77-5.22Z"/><path class="cls-1" d="M43.72,11.54l-6,3.1a7,7,0,0,0-9.79,5.09l-6,3.11A11.32,11.32,0,0,1,21.83,21,13,13,0,0,1,43.72,11.54Z"/><rect class="cls-1" x="-3" y="17.78" width="77.77" height="6" transform="translate(-5.54 18.89) rotate(-27.47)"/></svg>