<svg id="Fg" xmlns="http://www.w3.org/2000/svg" viewBox="0 0 96.07 130.34"><defs><style>.cls-1{fill:#fff;}.cls-2{fill:#787b80;}.cls-3{fill:#21b3cf;}.cls-4{fill:#414042;}</style></defs><title>BlendingEditor-3</title><circle class="cls-1" cx="69.58" cy="70.31" r="2.14" transform="translate(-0.22 0.22) rotate(-0.18)"/><path class="cls-2" d="M96.07,122.94a7.33,7.33,0,0,1-7.47,7.14l-80.73.25a7.33,7.33,0,0,1-7.51-7.1L0,7.39A7.33,7.33,0,0,1,7.47.25L88.19,0a7.34,7.34,0,0,1,7.51,7.1Z"/><rect class="cls-3" x="9.22" y="12.91" width="77.62" height="104.78" transform="translate(-0.2 0.15) rotate(-0.18)"/><circle class="cls-4" cx="47.85" cy="7.58" r="1.16" transform="matrix(1, 0, 0, 1, -0.02, 0.15)"/><circle class="cls-4" cx="48.21" cy="123.51" r="3.69" transform="translate(-0.38 0.15) rotate(-0.18)"/></svg>