<svg id="Text" xmlns="http://www.w3.org/2000/svg" viewBox="0 0 201.55 129.99"><defs><style>.cls-1{fill:#787b80;}.cls-2{fill:#414042;}.cls-3{fill:#21b3cf;}</style></defs><title>BlendingEditor-3</title><rect class="cls-1" x="11.57" width="178.41" height="120.17" rx="8.26" ry="8.26"/><path class="cls-1" d="M114.58,122.56a1.44,1.44,0,0,1,0,.19,1.59,1.59,0,0,1-1.59,1.59H88.54a1.59,1.59,0,0,1-1.59-1.59,1.8,1.8,0,0,1,0-.19H0C0,126.65,8.48,130,18.84,130H182.71c10.36,0,18.84-3.34,18.84-7.42h-87Z"/><rect class="cls-2" x="21.71" y="10.64" width="158.13" height="97.93"/><circle class="cls-2" cx="100.77" cy="4.47" r="1.44"/><rect class="cls-3" x="21.63" y="10.31" width="158.29" height="98.59"/></svg>