<svg id="Bg" xmlns="http://www.w3.org/2000/svg" viewBox="0 0 2784 192"><defs><style>.cls-1,.cls-35{fill:#596567;}.cls-2,.cls-4{fill:#3f494b;}.cls-2{stroke:#3f494b;}.cls-18,.cls-19,.cls-2,.cls-20,.cls-21,.cls-23,.cls-24,.cls-25,.cls-26,.cls-28,.cls-3,.cls-32,.cls-36,.cls-37,.cls-38,.cls-39,.cls-40{stroke-miterlimit:10;}.cls-18,.cls-19,.cls-2,.cls-3{stroke-width:7px;}.cls-10,.cls-3{fill:#21b3cf;}.cls-3{stroke:#21b3cf;}.cls-41,.cls-5{fill:#231f20;}.cls-11,.cls-14,.cls-15,.cls-16,.cls-17,.cls-23,.cls-24,.cls-29,.cls-31,.cls-34,.cls-6{fill:#fff;}.cls-7{fill:#787b80;}.cls-8{fill:#414042;}.cls-9{fill:#383f41;}.cls-11{font-size:18px;}.cls-11,.cls-13,.cls-14,.cls-15,.cls-16,.cls-17,.cls-22,.cls-23,.cls-25,.cls-29,.cls-30,.cls-31,.cls-33,.cls-34,.cls-35,.cls-41{font-family:InterFace Bold;font-weight:700;}.cls-12{white-space:pre;}.cls-13,.cls-15{font-size:23.06px;}.cls-13,.cls-22,.cls-25,.cls-26,.cls-27,.cls-30,.cls-33{fill:#b1b5b6;}.cls-14{font-size:30.74px;}.cls-16{font-size:15.37px;}.cls-17{font-size:15.99px;}.cls-18,.cls-19,.cls-20,.cls-21,.cls-28,.cls-32,.cls-36,.cls-37,.cls-38,.cls-39,.cls-40{fill:none;}.cls-18,.cls-19{stroke:#596567;}.cls-19,.cls-21{stroke-dasharray:5.8 5.8;}.cls-20,.cls-21{stroke:#787b80;stroke-width:4px;}.cls-22{font-size:17.08px;}.cls-23,.cls-25{font-size:16.17px;}.cls-23,.cls-24{stroke:#fff;}.cls-24,.cls-26{stroke-width:3px;}.cls-25,.cls-26,.cls-28,.cls-36,.cls-37,.cls-38,.cls-39,.cls-40{stroke:#b1b5b6;}.cls-28{stroke-width:6px;}.cls-29,.cls-41{font-size:24.51px;}.cls-30,.cls-31{font-size:26.4px;}.cls-32{stroke:#231f20;stroke-width:5px;}.cls-33{font-size:25.62px;}.cls-34,.cls-35{font-size:25.27px;}.cls-36,.cls-37,.cls-38,.cls-39,.cls-40{stroke-width:9px;}.cls-37{stroke-dasharray:15.19 15.19;}.cls-38{stroke-dasharray:13.44 13.44;}.cls-39{stroke-dasharray:15.26 15.26;}.cls-40{stroke-dasharray:13.5 13.5;}</style></defs><title>BlendingEditor-3</title><rect class="cls-1" y="1" width="2785.23" height="192"/><rect class="cls-2" x="208.71" y="15.96" width="112.22" height="72"/><rect class="cls-2" x="336.26" y="15.96" width="112.22" height="72"/><rect class="cls-2" x="336.26" y="102.43" width="112.22" height="72"/><rect class="cls-3" x="208.71" y="102.43" width="112.22" height="72"/><rect class="cls-4" x="1572.08" y="22.19" width="499.64" height="64.79" rx="12" ry="12"/><rect class="cls-5" x="2142.65" y="23.74" width="145" height="145"/><rect class="cls-4" x="2354.38" y="21.97" width="209.1" height="146.68" rx="12" ry="12"/><circle class="cls-6" cx="378.11" cy="54.37" r="0.97" transform="translate(-0.17 1.17) rotate(-0.18)"/><path class="cls-7" d="M390.2,78.39a3.35,3.35,0,0,1-3.41,3.26l-36.85.11a3.35,3.35,0,0,1-3.43-3.24l-0.16-52.88a3.35,3.35,0,0,1,3.41-3.26l36.85-.11A3.35,3.35,0,0,1,390,25.52Z"/><rect class="cls-8" x="350.56" y="28.17" width="35.43" height="47.83" transform="translate(-0.16 1.14) rotate(-0.18)"/><circle class="cls-8" cx="368.19" cy="25.74" r="0.53" transform="translate(-0.08 1.14) rotate(-0.18)"/><circle class="cls-8" cx="368.35" cy="78.65" r="1.68" transform="translate(-0.24 1.14) rotate(-0.18)"/><path class="cls-7" d="M408.52,169c3.27,0.79,2.82,1.43-1,1.43H376.94c-3.82,0-4.24-.64-0.93-1.43,1.56-.37,6.15-1,6.15-1h20.42S407.07,168.7,408.52,169Z"/><polygon class="cls-7" points="402.52 166.76 381.97 166.76 384.61 162.89 399.88 162.89 402.52 166.76"/><path class="cls-7" d="M445.94,160.26a3.47,3.47,0,0,1-3.38,3.54H342.18a3.47,3.47,0,0,1-3.38-3.54V110.91a3.47,3.47,0,0,1,3.38-3.54H442.56a3.47,3.47,0,0,1,3.38,3.54v49.34Z"/><rect class="cls-8" x="343" y="111.93" width="98.74" height="45.73"/><ellipse class="cls-8" cx="392.37" cy="161.04" rx="1.35" ry="1.42"/><path class="cls-7" d="M264,77.68a4.53,4.53,0,0,1-4.74,4.26H238a4.53,4.53,0,0,1-4.74-4.26V26.23A4.53,4.53,0,0,1,238,22h21.24A4.53,4.53,0,0,1,264,26.23V77.68Z"/><rect class="cls-8" x="236.14" y="31.2" width="24.99" height="41.65"/><circle class="cls-8" cx="248.64" cy="26.4" r="0.7"/><circle class="cls-8" cx="248.64" cy="77.49" r="2.26"/><rect class="cls-9" x="1692.87" y="30.45" width="62.77" height="48.28" rx="8" ry="8"/><rect class="cls-10" x="1765.62" y="30.93" width="62.77" height="48.28" rx="8" ry="8"/><circle class="cls-8" cx="269.42" cy="110.58" r="0.67"/><rect class="cls-7" x="224.94" y="108.21" width="82.97" height="55.88" rx="3.84" ry="3.84"/><rect class="cls-10" x="229.65" y="113.16" width="73.53" height="45.54"/><path class="cls-7" d="M272.84,165.2a0.67,0.67,0,0,1,0,.09,0.74,0.74,0,0,1-.74.74H260.73a0.74,0.74,0,0,1-.74-0.74,0.84,0.84,0,0,1,0-.09H219.56c0,1.9,3.94,3.45,8.76,3.45h76.2c4.82,0,8.76-1.55,8.76-3.45H272.84Z"/><text class="cls-11" transform="translate(273.35 61.61)">320<tspan x="27.7" y="0">p</tspan><tspan x="37.69" y="0">x</tspan></text><text class="cls-11" transform="translate(394.57 59)">480<tspan x="27.7" y="0">p</tspan><tspan x="37.69" y="0">x</tspan></text><text class="cls-11" transform="translate(241.26 141.24)"><tspan class="cls-12">960  </tspan><tspan x="35.33" y="0">p</tspan><tspan x="45.32" y="0">x</tspan></text><text class="cls-11" transform="translate(361.53 141.3)">1200<tspan x="36.94" y="0">p</tspan><tspan x="46.92" y="0">x</tspan></text><text class="cls-13" transform="translate(1712.52 62.28)">p<tspan x="12.8" y="0">x</tspan></text><text class="cls-14" transform="translate(1600.8 66.4)">50</text><rect class="cls-10" x="1840.73" y="30.93" width="99.76" height="48.28" rx="8" ry="8"/><text class="cls-15" transform="translate(1787.87 61.83)">%</text><rect class="cls-9" x="1954.81" y="29.83" width="104.95" height="48.28" rx="8" ry="8"/><text class="cls-16" transform="translate(1990.54 47.63)">g<tspan x="8.5" y="0">r</tspan><tspan x="13.37" y="0">o</tspan><tspan x="21.7" y="0">w</tspan><tspan x="-24.36" y="18.44">with </tspan><tspan x="7.42" y="18.44">c</tspan><tspan x="14.22" y="18.44">o</tspan><tspan x="22.66" y="18.44">n</tspan><tspan x="31.13" y="18.44">t</tspan><tspan x="36.12" y="18.44">e</tspan><tspan x="43.82" y="18.44">n</tspan><tspan x="52.29" y="18.44">t</tspan></text><text class="cls-16" transform="translate(1874.1 49.82)">g<tspan x="8.5" y="0">r</tspan><tspan x="13.37" y="0">o</tspan><tspan x="21.7" y="0">w</tspan><tspan x="-20.53" y="18.44">with pa</tspan><tspan x="27.41" y="18.44">r</tspan><tspan x="32.29" y="18.44">e</tspan><tspan x="39.99" y="18.44">n</tspan><tspan x="48.46" y="18.44">t</tspan></text><rect class="cls-9" x="2369.38" y="38.83" width="84.55" height="48.28" rx="8" ry="8"/><text class="cls-17" transform="translate(2379.69 65.06) scale(0.96 1)">Di<tspan x="14.39" y="0">r</tspan><tspan x="19.46" y="0">e</tspan><tspan x="27.47" y="0">c</tspan><tspan x="34.84" y="0">tion</tspan></text><rect class="cls-9" x="2467.04" y="36.29" width="84.55" height="48.28" rx="8" ry="8"/><text class="cls-16" transform="translate(2484.95 65.19)">S<tspan x="7.67" y="0">ou</tspan><tspan x="24.58" y="0">r</tspan><tspan x="29.45" y="0">c</tspan><tspan x="36.24" y="0">e</tspan></text><rect class="cls-9" x="2369.38" y="105.21" width="84.55" height="48.28" rx="8" ry="8"/><text class="cls-16" transform="translate(2393.36 134.11)">H<tspan x="10.27" y="0">tml</tspan></text><rect class="cls-9" x="2467.04" y="105.21" width="84.55" height="48.28" rx="8" ry="8"/><rect class="cls-4" x="31.97" y="13.97" width="142.02" height="50.59" rx="12" ry="12"/><rect class="cls-4" x="31.97" y="70.84" width="142.02" height="50.59" rx="12" ry="12"/><rect class="cls-2" x="824.21" y="114.33" width="48.33" height="48.33"/><rect class="cls-2" x="887.64" y="114.33" width="48.33" height="48.33"/><polyline class="cls-18" points="911.14 82.27 911.14 85.27 908.14 85.27"/><line class="cls-19" x1="902.35" y1="85.27" x2="870.47" y2="85.27"/><polyline class="cls-18" points="867.57 85.27 864.57 85.27 864.57 82.27"/><line class="cls-19" x1="864.57" y1="76.47" x2="864.57" y2="44.59"/><polyline class="cls-18" points="864.57 41.69 864.57 38.69 867.57 38.69"/><line class="cls-19" x1="873.37" y1="38.69" x2="905.25" y2="38.69"/><polyline class="cls-18" points="908.14 38.69 911.14 38.69 911.14 41.69"/><line class="cls-19" x1="911.14" y1="47.49" x2="911.14" y2="79.37"/><polyline class="cls-18" points="957.72 82.27 957.72 85.27 954.72 85.27"/><line class="cls-19" x1="948.92" y1="85.27" x2="917.04" y2="85.27"/><polyline class="cls-18" points="914.14 85.27 911.14 85.27 911.14 82.27"/><line class="cls-19" x1="911.14" y1="76.47" x2="911.14" y2="44.59"/><polyline class="cls-18" points="911.14 41.69 911.14 38.69 914.14 38.69"/><line class="cls-19" x1="919.94" y1="38.69" x2="951.82" y2="38.69"/><polyline class="cls-18" points="954.72 38.69 957.72 38.69 957.72 41.69"/><line class="cls-19" x1="957.72" y1="47.49" x2="957.72" y2="79.37"/><polyline class="cls-18" points="1004.29 82.27 1004.29 85.27 1001.29 85.27"/><line class="cls-19" x1="995.5" y1="85.27" x2="963.62" y2="85.27"/><polyline class="cls-18" points="960.72 85.27 957.72 85.27 957.72 82.27"/><line class="cls-19" x1="957.72" y1="76.47" x2="957.72" y2="44.59"/><polyline class="cls-18" points="957.72 41.69 957.72 38.69 960.72 38.69"/><line class="cls-19" x1="966.51" y1="38.69" x2="998.39" y2="38.69"/><polyline class="cls-18" points="1001.29 38.69 1004.29 38.69 1004.29 41.69"/><line class="cls-19" x1="1004.29" y1="47.49" x2="1004.29" y2="79.37"/><polyline class="cls-18" points="1050.87 82.27 1050.87 85.27 1047.87 85.27"/><line class="cls-19" x1="1042.07" y1="85.27" x2="1010.19" y2="85.27"/><polyline class="cls-18" points="1007.29 85.27 1004.29 85.27 1004.29 82.27"/><line class="cls-19" x1="1004.29" y1="76.47" x2="1004.29" y2="44.59"/><polyline class="cls-18" points="1004.29 41.69 1004.29 38.69 1007.29 38.69"/><line class="cls-19" x1="1013.09" y1="38.69" x2="1044.97" y2="38.69"/><polyline class="cls-18" points="1047.87 38.69 1050.87 38.69 1050.87 41.69"/><line class="cls-19" x1="1050.87" y1="47.49" x2="1050.87" y2="79.37"/><polyline class="cls-18" points="1097.44 82.27 1097.44 85.27 1094.44 85.27"/><line class="cls-19" x1="1088.65" y1="85.27" x2="1056.77" y2="85.27"/><polyline class="cls-18" points="1053.87 85.27 1050.87 85.27 1050.87 82.27"/><line class="cls-19" x1="1050.87" y1="76.47" x2="1050.87" y2="44.59"/><polyline class="cls-18" points="1050.87 41.69 1050.87 38.69 1053.87 38.69"/><line class="cls-19" x1="1059.66" y1="38.69" x2="1091.54" y2="38.69"/><polyline class="cls-18" points="1094.44 38.69 1097.44 38.69 1097.44 41.69"/><line class="cls-19" x1="1097.44" y1="47.49" x2="1097.44" y2="79.37"/><polyline class="cls-20" points="1144.02 82.27 1144.02 85.27 1141.02 85.27"/><line class="cls-21" x1="1135.22" y1="85.27" x2="1103.34" y2="85.27"/><polyline class="cls-20" points="1100.44 85.27 1097.44 85.27 1097.44 82.27"/><line class="cls-21" x1="1097.44" y1="76.47" x2="1097.44" y2="44.59"/><polyline class="cls-20" points="1097.44 41.69 1097.44 38.69 1100.44 38.69"/><line class="cls-21" x1="1106.24" y1="38.69" x2="1138.12" y2="38.69"/><polyline class="cls-20" points="1141.02 38.69 1144.02 38.69 1144.02 41.69"/><line class="cls-21" x1="1144.02" y1="47.49" x2="1144.02" y2="79.37"/><polyline class="cls-20" points="1190.59 82.27 1190.59 85.27 1187.59 85.27"/><line class="cls-21" x1="1181.8" y1="85.27" x2="1149.92" y2="85.27"/><polyline class="cls-20" points="1147.02 85.27 1144.02 85.27 1144.02 82.27"/><line class="cls-21" x1="1144.02" y1="76.47" x2="1144.02" y2="44.59"/><polyline class="cls-20" points="1144.02 41.69 1144.02 38.69 1147.02 38.69"/><line class="cls-21" x1="1152.81" y1="38.69" x2="1184.69" y2="38.69"/><polyline class="cls-20" points="1187.59 38.69 1190.59 38.69 1190.59 41.69"/><line class="cls-21" x1="1190.59" y1="47.49" x2="1190.59" y2="79.37"/><polyline class="cls-20" points="1237.17 82.27 1237.17 85.27 1234.17 85.27"/><line class="cls-21" x1="1228.37" y1="85.27" x2="1196.49" y2="85.27"/><polyline class="cls-20" points="1193.59 85.27 1190.59 85.27 1190.59 82.27"/><line class="cls-21" x1="1190.59" y1="76.47" x2="1190.59" y2="44.59"/><polyline class="cls-20" points="1190.59 41.69 1190.59 38.69 1193.59 38.69"/><line class="cls-21" x1="1199.39" y1="38.69" x2="1231.27" y2="38.69"/><polyline class="cls-20" points="1234.17 38.69 1237.17 38.69 1237.17 41.69"/><line class="cls-21" x1="1237.17" y1="47.49" x2="1237.17" y2="79.37"/><polyline class="cls-20" points="1283.74 82.27 1283.74 85.27 1280.74 85.27"/><line class="cls-21" x1="1274.94" y1="85.27" x2="1243.06" y2="85.27"/><polyline class="cls-20" points="1240.17 85.27 1237.17 85.27 1237.17 82.27"/><line class="cls-21" x1="1237.17" y1="76.47" x2="1237.17" y2="44.59"/><polyline class="cls-20" points="1237.17 41.69 1237.17 38.69 1240.17 38.69"/><line class="cls-21" x1="1245.96" y1="38.69" x2="1277.84" y2="38.69"/><polyline class="cls-20" points="1280.74 38.69 1283.74 38.69 1283.74 41.69"/><line class="cls-21" x1="1283.74" y1="47.49" x2="1283.74" y2="79.37"/><polyline class="cls-20" points="1329.67 82.27 1329.67 85.27 1326.67 85.27"/><line class="cls-21" x1="1320.87" y1="85.27" x2="1288.99" y2="85.27"/><polyline class="cls-20" points="1286.09 85.27 1283.09 85.27 1283.09 82.27"/><line class="cls-21" x1="1283.09" y1="76.47" x2="1283.09" y2="44.59"/><polyline class="cls-20" points="1283.09 41.69 1283.09 38.69 1286.09 38.69"/><line class="cls-21" x1="1291.89" y1="38.69" x2="1323.77" y2="38.69"/><polyline class="cls-20" points="1326.67 38.69 1329.67 38.69 1329.67 41.69"/><line class="cls-21" x1="1329.67" y1="47.49" x2="1329.67" y2="79.37"/><polyline class="cls-20" points="1376.89 82.27 1376.89 85.27 1373.89 85.27"/><line class="cls-21" x1="1368.09" y1="85.27" x2="1336.21" y2="85.27"/><polyline class="cls-20" points="1333.32 85.27 1330.32 85.27 1330.32 82.27"/><line class="cls-21" x1="1330.32" y1="76.47" x2="1330.32" y2="44.59"/><polyline class="cls-20" points="1330.32 41.69 1330.32 38.69 1333.32 38.69"/><line class="cls-21" x1="1339.11" y1="38.69" x2="1370.99" y2="38.69"/><polyline class="cls-20" points="1373.89 38.69 1376.89 38.69 1376.89 41.69"/><line class="cls-21" x1="1376.89" y1="47.49" x2="1376.89" y2="79.37"/><polyline class="cls-18" points="864.57 82.27 864.57 85.27 861.57 85.27"/><line class="cls-19" x1="855.77" y1="85.27" x2="823.89" y2="85.27"/><polyline class="cls-18" points="820.99 85.27 817.99 85.27 817.99 82.27"/><line class="cls-19" x1="817.99" y1="76.47" x2="817.99" y2="44.59"/><polyline class="cls-18" points="817.99 41.69 817.99 38.69 820.99 38.69"/><line class="cls-19" x1="826.79" y1="38.69" x2="858.67" y2="38.69"/><polyline class="cls-18" points="861.57 38.69 864.57 38.69 864.57 41.69"/><line class="cls-19" x1="864.57" y1="47.49" x2="864.57" y2="79.37"/><rect class="cls-3" x="817.99" y="38.69" width="279.45" height="46.57"/><text class="cls-22" transform="translate(1022.4 25.06)">50% of pa<tspan x="70.6" y="0">r</tspan><tspan x="76.01" y="0">e</tspan><tspan x="84.57" y="0">n</tspan><tspan x="93.98" y="0">t width</tspan></text><text class="cls-23" transform="translate(837.13 57.94)">1<tspan x="-4.15" y="19.41">12</tspan></text><line class="cls-24" x1="833.52" y1="61.98" x2="850.34" y2="61.98"/><text class="cls-23" transform="translate(883.71 57.94)">2<tspan x="-4.15" y="19.41">12</tspan></text><text class="cls-23" transform="translate(930.28 57.94)">3<tspan x="-4.15" y="19.41">12</tspan></text><text class="cls-23" transform="translate(976.86 57.94)">4<tspan x="-4.15" y="19.41">12</tspan></text><text class="cls-23" transform="translate(1023.43 57.94)">5<tspan x="-4.15" y="19.41">12</tspan></text><text class="cls-23" transform="translate(1070.01 57.94)">6<tspan x="-4.15" y="19.41">12</tspan></text><text class="cls-25" transform="translate(1116.58 57.94)">7<tspan x="-4.15" y="19.41">12</tspan></text><text class="cls-25" transform="translate(1163.16 57.94)">8<tspan x="-4.15" y="19.41">12</tspan></text><text class="cls-25" transform="translate(1209.73 57.94)">9<tspan x="-4.15" y="19.41">12</tspan></text><text class="cls-25" transform="translate(1252.16 57.94)">10<tspan x="0" y="19.41">12</tspan></text><text class="cls-25" transform="translate(1298.73 57.94)">11<tspan x="0" y="19.41">12</tspan></text><text class="cls-25" transform="translate(1345.31 57.94)">12<tspan x="0" y="19.41">12</tspan></text><line class="cls-24" x1="880.09" y1="61.98" x2="896.27" y2="61.98"/><line class="cls-24" x1="926.67" y1="61.98" x2="942.84" y2="61.98"/><line class="cls-24" x1="973.24" y1="61.98" x2="989.42" y2="61.98"/><line class="cls-24" x1="1019.82" y1="61.98" x2="1035.99" y2="61.98"/><line class="cls-24" x1="1066.39" y1="61.98" x2="1082.56" y2="61.98"/><line class="cls-26" x1="1112.97" y1="61.98" x2="1129.14" y2="61.98"/><line class="cls-26" x1="1159.54" y1="61.98" x2="1175.71" y2="61.98"/><line class="cls-26" x1="1206.12" y1="61.98" x2="1222.29" y2="61.98"/><line class="cls-26" x1="1252.69" y1="61.98" x2="1268.86" y2="61.98"/><line class="cls-26" x1="1299.27" y1="61.98" x2="1315.44" y2="61.98"/><line class="cls-26" x1="1345.84" y1="61.98" x2="1362.01" y2="61.98"/><polyline class="cls-27" points="832.26 149.91 848.38 125.75 864.49 149.91"/><polygon class="cls-27" points="895.03 127.09 927.25 127.09 911.14 151.25 895.03 127.09"/><path class="cls-28" d="M1384.06,140.13c-17.86,26.56-48.93,26.38-66.4,0C1335.13,113.75,1366.2,113.56,1384.06,140.13Z"/><circle class="cls-28" cx="1350.86" cy="140.19" r="11.07"/><text class="cls-29" transform="translate(75.9 45.7)">S<tspan x="12.15" y="0">a</tspan><tspan x="23.77" y="0">v</tspan><tspan x="35.31" y="0">e</tspan></text><text class="cls-29" transform="translate(65.69 103.3)">C<tspan x="14.04" y="0">an</tspan><tspan x="39.45" y="0">c</tspan><tspan x="50.29" y="0">el</tspan></text><text class="cls-30" transform="translate(2664.24 60)">No<tspan x="31.86" y="0">r</tspan><tspan x="40.6" y="0">mal</tspan></text><text class="cls-31" transform="translate(2664.24 154.23)">Expe<tspan x="53.46" y="0">r</tspan><tspan x="62.72" y="0">t</tspan></text><polyline class="cls-32" points="2785.23 96 2620.24 96 2620.24 0"/><rect class="cls-4" x="31.97" y="127.84" width="142.02" height="50.59" rx="12" ry="12"/><text class="cls-29" transform="translate(71.48 160.31)">R<tspan x="13.28" y="0">eset</tspan></text><text class="cls-33" transform="translate(1467.05 64.62)">WI<tspan x="27.79" y="0">D</tspan><tspan x="44.22" y="0">TH</tspan></text><rect class="cls-4" x="1572.08" y="107.01" width="499.64" height="64.79" rx="12" ry="12"/><rect class="cls-10" x="1692.87" y="115.27" width="62.77" height="48.28" rx="8" ry="8"/><text class="cls-15" transform="translate(1712.52 147.09)">p<tspan x="12.8" y="0">x</tspan></text><text class="cls-14" transform="translate(1602.92 151.22)">200</text><rect class="cls-9" x="1840.73" y="115.74" width="99.76" height="48.28" rx="8" ry="8"/><rect class="cls-9" x="1765.62" y="115.74" width="62.77" height="48.28" rx="8" ry="8"/><text class="cls-13" transform="translate(1787.87 146.65)">%</text><rect class="cls-10" x="1954.81" y="115.74" width="104.95" height="48.28" rx="8" ry="8"/><text class="cls-16" transform="translate(1990.54 134.64)">g<tspan x="8.5" y="0">r</tspan><tspan x="13.37" y="0">o</tspan><tspan x="21.7" y="0">w</tspan><tspan x="-24.36" y="18.44">with </tspan><tspan x="7.42" y="18.44">c</tspan><tspan x="14.22" y="18.44">o</tspan><tspan x="22.66" y="18.44">n</tspan><tspan x="31.13" y="18.44">t</tspan><tspan x="36.12" y="18.44">e</tspan><tspan x="43.82" y="18.44">n</tspan><tspan x="52.29" y="18.44">t</tspan></text><text class="cls-16" transform="translate(1874.1 134.64)">g<tspan x="8.5" y="0">r</tspan><tspan x="13.37" y="0">o</tspan><tspan x="21.7" y="0">w</tspan><tspan x="-20.53" y="18.44">with pa</tspan><tspan x="27.41" y="18.44">r</tspan><tspan x="32.29" y="18.44">e</tspan><tspan x="39.99" y="18.44">n</tspan><tspan x="48.46" y="18.44">t</tspan></text><text class="cls-33" transform="translate(1467.05 149.94)">HEIGHT</text><rect class="cls-4" x="983.87" y="113.02" width="129.1" height="52.16" rx="12" ry="12"/><text class="cls-34" transform="translate(1014.11 146.49)">G<tspan x="16.32" y="0">r</tspan><tspan x="24.33" y="0">oup</tspan></text><rect class="cls-7" x="1125.74" y="113.02" width="143.13" height="52.16" rx="12" ry="12"/><text class="cls-35" transform="translate(1148.64 146.49)">Un<tspan x="30.37" y="0">g</tspan><tspan x="44.34" y="0">r</tspan><tspan x="52.35" y="0">oup</tspan></text><rect class="cls-4" x="576.77" y="70.71" width="93.18" height="50.59" rx="12" ry="12"/><text class="cls-29" transform="translate(598.63 103.43)">20<tspan x="25.14" y="0">p</tspan><tspan x="38.74" y="0">x</tspan></text><line class="cls-36" x1="596.96" y1="13.97" x2="596.96" y2="19.97"/><line class="cls-37" x1="596.96" y1="35.16" x2="596.96" y2="57.94"/><polyline class="cls-36" points="596.96 65.54 596.96 71.54 590.96 71.54"/><line class="cls-38" x1="577.52" y1="71.54" x2="530.48" y2="71.54"/><line class="cls-36" x1="523.76" y1="71.54" x2="517.76" y2="71.54"/><line class="cls-36" x1="599.15" y1="177.58" x2="599.15" y2="171.58"/><line class="cls-37" x1="599.15" y1="156.39" x2="599.15" y2="133.61"/><polyline class="cls-36" points="599.15 126.02 599.15 120.02 593.15 120.02"/><line class="cls-38" x1="579.71" y1="120.01" x2="532.67" y2="120.01"/><line class="cls-36" x1="525.95" y1="120.01" x2="519.95" y2="120.01"/><line class="cls-36" x1="648.71" y1="177.58" x2="648.71" y2="171.58"/><line class="cls-37" x1="648.71" y1="156.39" x2="648.71" y2="133.61"/><polyline class="cls-36" points="648.71 126.02 648.71 120.02 654.71 120.02"/><line class="cls-38" x1="668.15" y1="120.01" x2="715.2" y2="120.01"/><line class="cls-36" x1="721.92" y1="120.01" x2="727.92" y2="120.01"/><line class="cls-36" x1="647.71" y1="15.59" x2="647.71" y2="21.59"/><line class="cls-39" x1="647.71" y1="36.85" x2="647.71" y2="59.75"/><polyline class="cls-36" points="647.71 67.38 647.71 73.38 653.71 73.38"/><line class="cls-40" x1="667.22" y1="73.38" x2="714.47" y2="73.38"/><line class="cls-36" x1="721.22" y1="73.38" x2="727.22" y2="73.38"/><rect class="cls-6" x="2175.31" y="58" width="80" height="80"/><text class="cls-41" transform="translate(2197.73 108.23)">F<tspan x="11.3" y="0">ill</tspan></text><text class="cls-29" transform="translate(2176.72 48.99)">O<tspan x="16.96" y="0">utline</tspan></text></svg>