<svg id="Bg" xmlns="http://www.w3.org/2000/svg" viewBox="0 0 2783.86 183.2"><defs><style>.cls-1,.cls-3{fill:#3f494b;}.cls-2{fill:#596567;}.cls-3{stroke:#3f494b;}.cls-10,.cls-11,.cls-14,.cls-15,.cls-16,.cls-17,.cls-19,.cls-24,.cls-3,.cls-7,.cls-8,.cls-9{stroke-miterlimit:10;}.cls-10,.cls-11,.cls-3,.cls-7,.cls-8,.cls-9{stroke-width:7px;}.cls-14,.cls-15,.cls-21,.cls-23,.cls-4{fill:#fff;}.cls-5{fill:#787b80;}.cls-6{fill:#414042;}.cls-10,.cls-19,.cls-24,.cls-7,.cls-8,.cls-9{fill:none;}.cls-7,.cls-8{stroke:#596567;}.cls-10,.cls-8{stroke-dasharray:6 6;}.cls-10,.cls-9{stroke:#787b80;}.cls-11,.cls-13{fill:#21b3cf;}.cls-11{stroke:#21b3cf;}.cls-12,.cls-23{font-size:26.4px;}.cls-12,.cls-16,.cls-17,.cls-18,.cls-20{fill:#b1b5b6;}.cls-12,.cls-14,.cls-16,.cls-20,.cls-21,.cls-23{font-family:InterFace Bold;font-weight:700;}.cls-14,.cls-16{font-size:25px;}.cls-14,.cls-15{stroke:#fff;}.cls-15,.cls-17{stroke-width:3px;}.cls-16,.cls-17,.cls-19{stroke:#b1b5b6;}.cls-19{stroke-width:6px;}.cls-20,.cls-21{font-size:18px;}.cls-22{white-space:pre;}.cls-24{stroke:#231f20;stroke-width:5px;}</style></defs><title>BlendingEditor-3</title><rect class="cls-1" x="55.62" y="28.29" width="152.99" height="54.5" rx="12" ry="12"/><rect class="cls-1" x="55.62" y="100.55" width="152.99" height="54.5" rx="12" ry="12"/><rect class="cls-2" width="2783.86" height="183.2"/><rect class="cls-3" x="2094.44" y="78.03" width="72" height="72"/><rect class="cls-3" x="2183.44" y="78.03" width="72" height="72"/><circle class="cls-4" cx="477.8" cy="109.02" r="2.14" transform="translate(-0.34 1.48) rotate(-0.18)"/><path class="cls-5" d="M504.28,161.65a7.33,7.33,0,0,1-7.47,7.14l-80.73.25a7.33,7.33,0,0,1-7.51-7.1L408.22,46.1A7.33,7.33,0,0,1,415.68,39l80.73-.25a7.34,7.34,0,0,1,7.51,7.1Z"/><rect class="cls-6" x="417.44" y="51.62" width="77.62" height="104.78" transform="translate(-0.32 1.41) rotate(-0.18)"/><circle class="cls-6" cx="456.07" cy="46.29" r="1.16" transform="matrix(1, 0, 0, 1, -0.14, 1.41)"/><circle class="cls-6" cx="456.43" cy="162.22" r="3.69" transform="translate(-0.5 1.41) rotate(-0.18)"/><path class="cls-5" d="M949.51,165.44c8.63,2,7.44,3.6-2.65,3.6H866.13c-10.09,0-11.2-1.62-2.46-3.6,4.12-.93,16.23-2.64,16.23-2.64h53.91S945.68,164.56,949.51,165.44Z"/><polygon class="cls-5" points="933.66 159.68 879.4 159.68 886.38 149.92 926.68 149.92 933.66 159.68"/><rect class="cls-5" x="765.44" y="10.03" width="282.86" height="142.17" rx="8.91" ry="8.91"/><rect class="cls-6" x="776.53" y="21.52" width="260.68" height="115.24"/><circle class="cls-6" cx="906.87" cy="145.26" r="3.57"/><path class="cls-5" d="M369.52,163.24c0,3.19-2.9,5.8-6.46,5.8H334.13c-3.55,0-6.46-2.61-6.46-5.8V93.15c0-3.19,2.91-5.81,6.46-5.81h28.93c3.55,0,6.46,2.61,6.46,5.81v70.09Z"/><rect class="cls-6" x="331.57" y="99.92" width="34.04" height="56.74"/><circle class="cls-6" cx="348.59" cy="93.38" r="0.95"/><circle class="cls-6" cx="348.59" cy="162.98" r="3.08"/><rect class="cls-5" x="546.01" y="39.06" width="178.41" height="120.17" rx="8.26" ry="8.26"/><path class="cls-5" d="M649,161.62a1.44,1.44,0,0,1,0,.19,1.59,1.59,0,0,1-1.59,1.59H623a1.59,1.59,0,0,1-1.59-1.59,1.8,1.8,0,0,1,0-.19h-87c0,4.08,8.48,7.42,18.84,7.42H717.14c10.36,0,18.84-3.34,18.84-7.42H649Z"/><polyline class="cls-7" points="1288.44 147.03 1288.44 150.03 1285.44 150.03"/><line class="cls-8" x1="1279.44" y1="150.03" x2="1222.44" y2="150.03"/><polyline class="cls-7" points="1219.44 150.03 1216.44 150.03 1216.44 147.03"/><line class="cls-8" x1="1216.44" y1="141.03" x2="1216.44" y2="84.03"/><polyline class="cls-7" points="1216.44 81.03 1216.44 78.03 1219.44 78.03"/><line class="cls-8" x1="1225.44" y1="78.03" x2="1282.44" y2="78.03"/><polyline class="cls-7" points="1285.44 78.03 1288.44 78.03 1288.44 81.03"/><line class="cls-8" x1="1288.44" y1="87.03" x2="1288.44" y2="144.03"/><polyline class="cls-7" points="1360.44 147.03 1360.44 150.03 1357.44 150.03"/><line class="cls-8" x1="1351.44" y1="150.03" x2="1294.44" y2="150.03"/><polyline class="cls-7" points="1291.44 150.03 1288.44 150.03 1288.44 147.03"/><line class="cls-8" x1="1288.44" y1="141.03" x2="1288.44" y2="84.03"/><polyline class="cls-7" points="1288.44 81.03 1288.44 78.03 1291.44 78.03"/><line class="cls-8" x1="1297.44" y1="78.03" x2="1354.44" y2="78.03"/><polyline class="cls-7" points="1357.44 78.03 1360.44 78.03 1360.44 81.03"/><line class="cls-8" x1="1360.44" y1="87.03" x2="1360.44" y2="144.03"/><polyline class="cls-7" points="1432.44 147.03 1432.44 150.03 1429.44 150.03"/><line class="cls-8" x1="1423.44" y1="150.03" x2="1366.44" y2="150.03"/><polyline class="cls-7" points="1363.44 150.03 1360.44 150.03 1360.44 147.03"/><line class="cls-8" x1="1360.44" y1="141.03" x2="1360.44" y2="84.03"/><polyline class="cls-7" points="1360.44 81.03 1360.44 78.03 1363.44 78.03"/><line class="cls-8" x1="1369.44" y1="78.03" x2="1426.44" y2="78.03"/><polyline class="cls-7" points="1429.44 78.03 1432.44 78.03 1432.44 81.03"/><line class="cls-8" x1="1432.44" y1="87.03" x2="1432.44" y2="144.03"/><polyline class="cls-7" points="1504.44 147.03 1504.44 150.03 1501.44 150.03"/><line class="cls-8" x1="1495.44" y1="150.03" x2="1438.44" y2="150.03"/><polyline class="cls-7" points="1435.44 150.03 1432.44 150.03 1432.44 147.03"/><line class="cls-8" x1="1432.44" y1="141.03" x2="1432.44" y2="84.03"/><polyline class="cls-7" points="1432.44 81.03 1432.44 78.03 1435.44 78.03"/><line class="cls-8" x1="1441.44" y1="78.03" x2="1498.44" y2="78.03"/><polyline class="cls-7" points="1501.44 78.03 1504.44 78.03 1504.44 81.03"/><line class="cls-8" x1="1504.44" y1="87.03" x2="1504.44" y2="144.03"/><polyline class="cls-7" points="1576.44 147.03 1576.44 150.03 1573.44 150.03"/><line class="cls-8" x1="1567.44" y1="150.03" x2="1510.44" y2="150.03"/><polyline class="cls-7" points="1507.44 150.03 1504.44 150.03 1504.44 147.03"/><line class="cls-8" x1="1504.44" y1="141.03" x2="1504.44" y2="84.03"/><polyline class="cls-7" points="1504.44 81.03 1504.44 78.03 1507.44 78.03"/><line class="cls-8" x1="1513.44" y1="78.03" x2="1570.44" y2="78.03"/><polyline class="cls-7" points="1573.44 78.03 1576.44 78.03 1576.44 81.03"/><line class="cls-8" x1="1576.44" y1="87.03" x2="1576.44" y2="144.03"/><polyline class="cls-9" points="1648.44 147.03 1648.44 150.03 1645.44 150.03"/><line class="cls-10" x1="1639.44" y1="150.03" x2="1582.44" y2="150.03"/><polyline class="cls-9" points="1579.44 150.03 1576.44 150.03 1576.44 147.03"/><line class="cls-10" x1="1576.44" y1="141.03" x2="1576.44" y2="84.03"/><polyline class="cls-9" points="1576.44 81.03 1576.44 78.03 1579.44 78.03"/><line class="cls-10" x1="1585.44" y1="78.03" x2="1642.44" y2="78.03"/><polyline class="cls-9" points="1645.44 78.03 1648.44 78.03 1648.44 81.03"/><line class="cls-10" x1="1648.44" y1="87.03" x2="1648.44" y2="144.03"/><polyline class="cls-9" points="1720.44 147.03 1720.44 150.03 1717.44 150.03"/><line class="cls-10" x1="1711.44" y1="150.03" x2="1654.44" y2="150.03"/><polyline class="cls-9" points="1651.44 150.03 1648.44 150.03 1648.44 147.03"/><line class="cls-10" x1="1648.44" y1="141.03" x2="1648.44" y2="84.03"/><polyline class="cls-9" points="1648.44 81.03 1648.44 78.03 1651.44 78.03"/><line class="cls-10" x1="1657.44" y1="78.03" x2="1714.44" y2="78.03"/><polyline class="cls-9" points="1717.44 78.03 1720.44 78.03 1720.44 81.03"/><line class="cls-10" x1="1720.44" y1="87.03" x2="1720.44" y2="144.03"/><polyline class="cls-9" points="1792.44 147.03 1792.44 150.03 1789.44 150.03"/><line class="cls-10" x1="1783.44" y1="150.03" x2="1726.44" y2="150.03"/><polyline class="cls-9" points="1723.44 150.03 1720.44 150.03 1720.44 147.03"/><line class="cls-10" x1="1720.44" y1="141.03" x2="1720.44" y2="84.03"/><polyline class="cls-9" points="1720.44 81.03 1720.44 78.03 1723.44 78.03"/><line class="cls-10" x1="1729.44" y1="78.03" x2="1786.44" y2="78.03"/><polyline class="cls-9" points="1789.44 78.03 1792.44 78.03 1792.44 81.03"/><line class="cls-10" x1="1792.44" y1="87.03" x2="1792.44" y2="144.03"/><polyline class="cls-9" points="1864.44 147.03 1864.44 150.03 1861.44 150.03"/><line class="cls-10" x1="1855.44" y1="150.03" x2="1798.44" y2="150.03"/><polyline class="cls-9" points="1795.44 150.03 1792.44 150.03 1792.44 147.03"/><line class="cls-10" x1="1792.44" y1="141.03" x2="1792.44" y2="84.03"/><polyline class="cls-9" points="1792.44 81.03 1792.44 78.03 1795.44 78.03"/><line class="cls-10" x1="1801.44" y1="78.03" x2="1858.44" y2="78.03"/><polyline class="cls-9" points="1861.44 78.03 1864.44 78.03 1864.44 81.03"/><line class="cls-10" x1="1864.44" y1="87.03" x2="1864.44" y2="144.03"/><polyline class="cls-9" points="1935.44 147.03 1935.44 150.03 1932.44 150.03"/><line class="cls-10" x1="1926.44" y1="150.03" x2="1869.44" y2="150.03"/><polyline class="cls-9" points="1866.44 150.03 1863.44 150.03 1863.44 147.03"/><line class="cls-10" x1="1863.44" y1="141.03" x2="1863.44" y2="84.03"/><polyline class="cls-9" points="1863.44 81.03 1863.44 78.03 1866.44 78.03"/><line class="cls-10" x1="1872.44" y1="78.03" x2="1929.44" y2="78.03"/><polyline class="cls-9" points="1932.44 78.03 1935.44 78.03 1935.44 81.03"/><line class="cls-10" x1="1935.44" y1="87.03" x2="1935.44" y2="144.03"/><polyline class="cls-9" points="2008.44 147.03 2008.44 150.03 2005.44 150.03"/><line class="cls-10" x1="1999.44" y1="150.03" x2="1942.44" y2="150.03"/><polyline class="cls-9" points="1939.44 150.03 1936.44 150.03 1936.44 147.03"/><line class="cls-10" x1="1936.44" y1="141.03" x2="1936.44" y2="84.03"/><polyline class="cls-9" points="1936.44 81.03 1936.44 78.03 1939.44 78.03"/><line class="cls-10" x1="1945.44" y1="78.03" x2="2002.44" y2="78.03"/><polyline class="cls-9" points="2005.44 78.03 2008.44 78.03 2008.44 81.03"/><line class="cls-10" x1="2008.44" y1="87.03" x2="2008.44" y2="144.03"/><polyline class="cls-7" points="1216.44 147.03 1216.44 150.03 1213.44 150.03"/><line class="cls-8" x1="1207.44" y1="150.03" x2="1150.44" y2="150.03"/><polyline class="cls-7" points="1147.44 150.03 1144.44 150.03 1144.44 147.03"/><line class="cls-8" x1="1144.44" y1="141.03" x2="1144.44" y2="84.03"/><polyline class="cls-7" points="1144.44 81.03 1144.44 78.03 1147.44 78.03"/><line class="cls-8" x1="1153.44" y1="78.03" x2="1210.44" y2="78.03"/><polyline class="cls-7" points="1213.44 78.03 1216.44 78.03 1216.44 81.03"/><line class="cls-8" x1="1216.44" y1="87.03" x2="1216.44" y2="144.03"/><rect class="cls-11" x="1144.44" y="78.03" width="432" height="72"/><text class="cls-12" transform="translate(1460.44 58.7)">50% of pa<tspan x="109.13" y="0">r</tspan><tspan x="117.5" y="0">e</tspan><tspan x="130.73" y="0">n</tspan><tspan x="145.28" y="0">t width</tspan></text><rect class="cls-6" x="556.15" y="49.7" width="158.13" height="97.93"/><circle class="cls-6" cx="635.21" cy="43.53" r="1.44"/><rect class="cls-13" x="556.07" y="49.38" width="158.29" height="98.59"/><text class="cls-14" transform="translate(1174.03 107.78)">1<tspan x="-6.41" y="30">12</tspan></text><line class="cls-15" x1="1168.44" y1="114.03" x2="1194.44" y2="114.03"/><text class="cls-14" transform="translate(1246.03 107.78)">2<tspan x="-6.41" y="30">12</tspan></text><text class="cls-14" transform="translate(1318.03 107.78)">3<tspan x="-6.41" y="30">12</tspan></text><text class="cls-14" transform="translate(1390.03 107.78)">4<tspan x="-6.41" y="30">12</tspan></text><text class="cls-14" transform="translate(1462.03 107.78)">5<tspan x="-6.41" y="30">12</tspan></text><text class="cls-14" transform="translate(1534.03 107.78)">6<tspan x="-6.41" y="30">12</tspan></text><text class="cls-16" transform="translate(1606.03 107.78)">7<tspan x="-6.41" y="30">12</tspan></text><text class="cls-16" transform="translate(1678.03 107.78)">8<tspan x="-6.41" y="30">12</tspan></text><text class="cls-16" transform="translate(1750.03 107.78)">9<tspan x="-6.41" y="30">12</tspan></text><text class="cls-16" transform="translate(1815.61 107.78)">10<tspan x="0" y="30">12</tspan></text><text class="cls-16" transform="translate(1887.61 107.78)">11<tspan x="0" y="30">12</tspan></text><text class="cls-16" transform="translate(1959.61 107.78)">12<tspan x="0" y="30">12</tspan></text><line class="cls-15" x1="1240.44" y1="114.03" x2="1265.44" y2="114.03"/><line class="cls-15" x1="1312.44" y1="114.03" x2="1337.44" y2="114.03"/><line class="cls-15" x1="1384.44" y1="114.03" x2="1409.44" y2="114.03"/><line class="cls-15" x1="1456.44" y1="114.03" x2="1481.44" y2="114.03"/><line class="cls-15" x1="1528.44" y1="114.03" x2="1553.44" y2="114.03"/><line class="cls-17" x1="1600.44" y1="114.03" x2="1625.44" y2="114.03"/><line class="cls-17" x1="1672.44" y1="114.03" x2="1697.44" y2="114.03"/><line class="cls-17" x1="1744.44" y1="114.03" x2="1769.44" y2="114.03"/><line class="cls-17" x1="1816.44" y1="114.03" x2="1841.44" y2="114.03"/><line class="cls-17" x1="1888.44" y1="114.03" x2="1913.44" y2="114.03"/><line class="cls-17" x1="1960.44" y1="114.03" x2="1985.44" y2="114.03"/><polyline class="cls-18" points="2106.44 131.03 2130.44 95.03 2154.44 131.03"/><polygon class="cls-18" points="2194.44 97.03 2242.44 97.03 2218.44 133.03 2194.44 97.03"/><path class="cls-19" d="M2388.44,116c-16.14,24-44.21,23.83-60,0C2344.23,92.14,2372.3,92,2388.44,116Z"/><circle class="cls-19" cx="2358.44" cy="116.03" r="10"/><text class="cls-20" transform="translate(325.56 76.02)">320<tspan x="27.7" y="0">p</tspan><tspan x="37.69" y="0">x</tspan></text><text class="cls-20" transform="translate(432.25 76.02)">480<tspan x="27.7" y="0">p</tspan><tspan x="37.69" y="0">x</tspan></text><text class="cls-21" transform="translate(609.83 76.02)"><tspan class="cls-22">960  </tspan><tspan x="35.33" y="0">p</tspan><tspan x="45.32" y="0">x</tspan></text><text class="cls-20" transform="translate(878.9 76.02)">1200<tspan x="36.94" y="0">p</tspan><tspan x="46.92" y="0">x</tspan></text><text class="cls-23" transform="translate(102.95 62.47)">S<tspan x="13.09" y="0">a</tspan><tspan x="25.61" y="0">v</tspan><tspan x="38.04" y="0">e</tspan></text><text class="cls-23" transform="translate(91.95 135.53)">C<tspan x="15.13" y="0">an</tspan><tspan x="42.5" y="0">c</tspan><tspan x="54.17" y="0">el</tspan></text><text class="cls-23" transform="translate(2662.86 57.24)">No<tspan x="31.86" y="0">r</tspan><tspan x="40.6" y="0">mal</tspan></text><text class="cls-12" transform="translate(2662.86 145.26)">Expe<tspan x="53.46" y="0">r</tspan><tspan x="62.72" y="0">t</tspan></text><polyline class="cls-24" points="2783.86 91.6 2618.87 91.6 2618.87 183.2"/></svg>